<svg width="48" height="49" viewBox="0 0 48 49" fill="none" xmlns="http://www.w3.org/2000/svg">
<path d="M41.6788 -0.000265674C43.8798 -0.000265482 45.8801 -0.000265307 47.9965 -0.000265122C47.9965 11.8091 47.9965 23.4967 47.9965 35.2884C36.2759 35.2884 24.5883 35.2884 12.7231 35.2884C12.7231 32.3505 12.6722 29.4843 12.7703 26.6233C12.7878 26.1108 13.3132 25.4472 13.7893 25.1491C15.5925 24.0202 17.472 23.0128 19.3475 21.946C16.1651 22.2115 13.0046 22.4752 9.67428 22.753C9.67428 27.8256 9.67428 33.078 9.67428 38.5352C22.3676 38.5352 35.1271 38.5352 48 38.5352C48 41.845 48 44.953 48 48.1621C32.0262 48.1621 16.096 48.1621 0.00910664 48.1621C0.00910765 36.5296 0.00910867 24.8408 0.00910971 13.0038C11.6092 13.0038 23.2971 13.0038 35.2531 13.0038C35.253 15.9282 35.3086 18.9174 35.196 21.9003C35.1781 22.3723 34.4743 22.9315 33.9631 23.2512C32.2898 24.2974 30.559 25.2516 28.7929 26.2745C32.0475 26.0114 35.1375 25.7617 38.3473 25.5022C38.3473 20.3368 38.3473 15.0857 38.3473 9.71122C25.5734 9.71122 12.8602 9.71122 3.36148e-06 9.71122C3.64353e-06 6.48498 3.91535e-06 3.37572 4.21049e-06 -0.000269318C13.7891 -0.000268112 27.6335 -0.000266902 41.6788 -0.000265674Z" fill="white"/>
</svg>
