<svg width="24" height="25" viewBox="0 0 24 25" fill="none" xmlns="http://www.w3.org/2000/svg">
<path d="M20.8394 0.000843725C21.9399 0.000843822 22.9401 0.000843909 23.9983 0.000844002C23.9983 5.9055 23.9983 11.7493 23.9983 17.6452C18.138 17.6452 12.2941 17.6452 6.36157 17.6452C6.36157 16.1762 6.33612 14.7431 6.38514 13.3126C6.39391 13.0564 6.65658 12.7246 6.89463 12.5755C7.79627 12.0111 8.73599 11.5074 9.67377 10.974C8.08254 11.1067 6.50231 11.2386 4.83714 11.3775C4.83714 13.9138 4.83714 16.54 4.83714 19.2686C11.1838 19.2686 17.5635 19.2686 24 19.2686C24 20.9235 24 22.4775 24 24.082C16.0131 24.082 8.04799 24.082 0.00455332 24.082C0.00455383 18.2658 0.00455434 12.4214 0.00455485 6.50289C5.80459 6.50289 11.6485 6.50289 17.6265 6.50289C17.6265 7.96508 17.6543 9.45968 17.598 10.9511C17.5891 11.1871 17.2371 11.4667 16.9815 11.6266C16.1449 12.1497 15.2795 12.6268 14.3964 13.1382C16.0238 13.0067 17.5687 12.8818 19.1736 12.7521C19.1736 10.1694 19.1736 7.54385 19.1736 4.85659C12.7867 4.85659 6.4301 4.85659 1.68074e-06 4.85659C1.82176e-06 3.24347 1.95768e-06 1.68884 2.10524e-06 0.000841904C6.89456 0.000842506 13.8168 0.000843112 20.8394 0.000843725Z" fill="white"/>
</svg>
