<svg width="128" height="129" viewBox="0 0 128 129" fill="none" xmlns="http://www.w3.org/2000/svg">
<path d="M16.8567 128.162C10.9872 128.162 5.65306 128.162 0.00925221 128.162C0.00924672 96.7768 0.00924129 65.7147 0.00923581 34.3762C31.2642 34.3762 62.4313 34.3762 94.0716 34.3762C94.0716 42.1842 94.2074 49.8016 93.9459 57.4054C93.8991 58.7672 92.4982 60.531 91.2286 61.3232C86.4199 64.3236 81.408 67.0008 76.4066 69.836C84.8931 69.1304 93.321 68.4296 102.202 67.6912C102.202 54.2098 102.202 40.2506 102.202 25.7474C68.3531 25.7474 34.3278 25.7474 4.47348e-06 25.7474C2.93546e-06 16.951 1.49121e-06 8.69083 0 0.162109C42.5968 0.162102 85.0774 0.162094 127.976 0.162087C127.976 31.0776 127.976 62.1426 127.976 93.6014C97.0422 93.6014 65.8745 93.6014 33.9919 93.6014C33.9919 85.8294 33.8439 77.8851 34.1441 69.9576C34.1917 68.703 36.0686 67.2169 37.4319 66.3673C41.8939 63.5868 46.5094 61.0507 51.219 58.3322C42.54 59.0314 34.3001 59.6952 25.7406 60.3847C25.7406 74.1128 25.7406 88.0684 25.7406 102.352C59.8044 102.352 93.7062 102.352 128 102.352C128 110.926 128 119.19 128 128.162C91.2291 128.162 54.3106 128.162 16.8567 128.162Z" fill="#E02343"/>
</svg>
